<?xml version="1.0" encoding="utf-8"?>
<!-- Generator: Adobe Illustrator 16.0.0, SVG Export Plug-In . SVG Version: 6.00 Build 0)  -->
<!DOCTYPE svg PUBLIC "-//W3C//DTD SVG 1.1//EN" "http://www.w3.org/Graphics/SVG/1.1/DTD/svg11.dtd">
<svg version="1.1" id="图层_1" xmlns="http://www.w3.org/2000/svg" xmlns:xlink="http://www.w3.org/1999/xlink" x="0px" y="0px"
	 width="200px" height="200px" viewBox="0 0 200 200" enable-background="new 0 0 200 200" xml:space="preserve">
<path d="M141.363,133.637l-0.454-0.455L141.363,133.637z M172.727,121.363c0-1.363-1.363-2.272-2.727-2.272
	s-2.273,0.909-2.273,2.272c0,2.728-9.09,5-20,5c-2.271,0-4.09,0-6.363-0.454c0.91-1.818,1.363-3.183,1.363-5v-4.546
	c0-1.363,0-3.182-0.453-5h0.453c12.273,0,22.729-3.637,24.547-8.637c0-0.453,0.453-0.908,0.453-1.363v-0.454
	c0-1.364-1.363-2.273-2.271-2.273c-1.364,0-2.272,0.909-2.272,2.273c0,2.728-9.092,5-20,5h-1.818c-0.454-1.818-1.363-3.183-1.818-5
	c8.637-5.455,13.637-12.728,13.637-20.455c0-5-2.271-10-6.363-14.091c0.908-1.818,1.363-3.637,1.363-5.909
	c-0.455-8.182-7.271-15-15.455-15c-1.816,0-3.636,0.455-5,0.909v9.091h-9.09c-0.455,1.364-0.91,3.182-0.91,5c0,8.182,6.818,15,15,15
	c4.547,0,8.184-1.818,10.91-5c2.728,3.182,4.09,6.364,4.09,10c0,5.909-4.09,11.818-10.908,15.909
	c-3.637-5.455-8.637-10.455-14.092-10.455h-45c-5.454,0-10.454,5-14.091,10.909c-6.818-4.545-10.909-10-10.909-15.909
	c0-3.636,1.364-6.818,4.091-10c2.727,3.182,6.818,5,10.909,5c8.182,0,15-6.818,15-15c0-1.818-0.454-3.637-0.909-5h-9.091v-9.091
	c-1.818-0.909-3.636-1.364-5-1.364c-8.182,0-15,6.818-15,15c0,2.272,0.455,4.091,1.364,5.909c-4.091,4.091-6.364,9.091-6.364,14.091
	c0,7.727,5,15,13.637,20.455c-0.909,1.816-1.364,3.636-2.273,5.453h-1.818c-10.909,0-20-2.271-20-5c0-1.362-0.909-2.271-2.273-2.271
	c-1.364,0-2.273,0.909-2.727,2.271v0.91c1.363,5,11.818,9.09,25,9.09h0.454c-0.454,1.818-0.454,3.638-0.454,5v5
	c0,1.363,0.454,3.183,1.363,5c-1.818,0-4.091,0.455-6.363,0.455c-10.909,0-20-2.272-20-5v-0.455c0-1.362-0.909-2.727-2.728-2.727
	c-1.819,0-2.272,0.908-2.272,2.727v0.455c0,5.455,11.363,10,25,10c3.182,0,6.363-0.455,9.091-0.455
	c2.727,3.638,6.363,7.729,10.909,10.91c-0.909,0.908-2.273,1.817-3.182,3.183c-8.182,7.271-16.364,10.907-18.636,9.09
	c-0.455-0.908-1.364-1.362-2.273-1.362c-1.363,0-2.727,0.908-2.727,2.728c0,0.909,0.455,1.362,0.909,1.817
	c3.636,4.092,15,0.455,25.455-8.637l4.088-4.09c5.909,4.091,12.272,6.818,16.364,6.818h15c4.09,0,10.453-2.729,16.363-6.818
	l4.09,4.091c10,8.183,20.455,12.272,24.547,9.546c0.908-0.455,1.363-1.363,1.363-2.272c0-1.363-0.91-2.728-2.729-2.728
	c-0.909,0-1.364,0.454-1.818,0.908c-1.816,2.273-10-1.818-18.636-9.09c-1.364-0.91-2.272-1.818-3.183-3.184
	c4.09-3.182,8.183-7.271,10.908-10.908c2.729,0.455,5.909,0.455,9.092,0.455c12.271,0,22.728-3.637,24.545-8.637
	C172.727,122.727,172.727,122.271,172.727,121.363C172.727,121.818,172.727,121.818,172.727,121.363z M58.636,133.637l0.455-0.455
	L58.636,133.637C59.091,133.637,59.091,133.637,58.636,133.637z"/>
<g>
	<path d="M131.841,108.189c3.488,0,6.328-2.84,6.328-6.328c0-1.688-0.653-3.277-1.849-4.479c-1.193-1.194-2.781-1.85-4.479-1.85
		c-3.487,0-6.329,2.841-6.329,6.329S128.354,108.189,131.841,108.189L131.841,108.189z"/>
	<path d="M170.424,115.553c-0.344-7.244-3.975-14.447-20.574-26.038c-7.885-5.505-14.995-7.531-21.266-9.321
		c-6.814-1.95-12.195-3.48-15.691-8.977l-0.119-0.177c-4.26-6.699-10.699-16.835-17.91-16.835c-0.328,0-0.656,0.017-0.976,0.059
		c-3.135,0.403-5.69,1.85-7.581,4.303c-1.521,1.967-2.605,4.615-3.236,7.859c-1.092,5.631-0.563,11.867-0.311,14.869
		c0.051,0.621,0.092,1.109,0.109,1.428c0.076,1.824-2.799,4.573-7.506,7.179c-4.463,2.454-9.33,4.16-11.457,4.388
		c-0.033,0-0.066,0.008-0.101,0.008c-1.319,0-3.487-2.538-5.581-4.984c-3.774-4.438-8.951-10.498-16.39-11.389
		c-0.387-0.051-0.799-0.067-1.202-0.067c-3.186,0-6.354,1.396-8.674,3.841c-3.883,4.077-4.455,9.852-4.261,13.979
		c0.361,7.361,6.094,11.75,9.515,14.383c0.546,0.418,1.177,0.906,1.581,1.26c-0.345,0.277-0.866,0.637-1.303,0.959
		c-2.9,2.057-7.758,5.514-9.381,12.109c-0.882,3.598-0.714,7.844,0.462,11.635c1.732,5.563,4.917,8.27,7.288,9.557
		c1.958,1.066,4.051,1.605,6.22,1.605c7.867,0,14.751-6.986,18.146-11.146c2.076-2.539,4.161-3.773,6.381-3.773
		c4.27,0,8.413,4.604,11.439,7.969l0.293,0.328c5.514,6.117,5.068,10.313,4.641,14.371c-0.033,0.295-0.06,0.59-0.093,0.883
		c-1.017,10.313,2.933,13.666,6.43,14.676c0.79,0.227,1.64,0.344,2.513,0.344l0,0c6.985,0,15.399-7.404,22.157-13.354
		c0.319-0.287,0.647-0.564,0.958-0.84c4.689-4.119,7.816-4.203,11.793-4.314c4.277-0.117,9.605-0.26,18.053-5.563
		c7.432-4.664,14.164-10.559,18.938-16.602C168.164,124.557,170.603,119.234,170.424,115.553L170.424,115.553z"/>
</g>
<g>
	<path fill="none" d="M104.551,39.082l44.377,14.198l-36.787,35.115l26.168,16.264l-85.721,75.269l23.139-61.195l-24.655-15.359
		L104.551,39.082L104.551,39.082z"/>
	<circle fill="none" stroke="#070102" stroke-miterlimit="10" cx="98.991" cy="106.625" r="93.375"/>
</g>
</svg>
